<?xml version="1.0" standalone="no"?><!DOCTYPE svg PUBLIC "-//W3C//DTD SVG 1.1//EN" "http://www.w3.org/Graphics/SVG/1.1/DTD/svg11.dtd"><svg t="1586268141537" class="icon" viewBox="0 0 1036 1024" version="1.1" xmlns="http://www.w3.org/2000/svg" p-id="3198" width="1036" height="1024" xmlns:xlink="http://www.w3.org/1999/xlink"><defs><style type="text/css">@font-face { font-family: Georgia; src: local("Source Han Serif SC"); }
@font-face { font-family: Times; src: local("Source Han Serif SC"); }
@font-face { font-family: "Time New Roman"; src: local("Source Han Serif SC"); }
@font-face { font-family: Arial; src: local("Source Han Sans SC"); }
@font-face { font-family: Helvetica; src: local("Source Han Sans SC"); }
@font-face { font-family: "Helvetica Neue"; src: local("Source Han Sans SC"); }
@font-face { font-family: "Segoe UI"; src: local("Source Han Sans SC"); }
@font-face { font-family: Tahoma; src: local("Source Han Sans SC"); }
@font-face { font-family: Trebuchet; src: local("Source Han Sans SC"); }
@font-face { font-family: "Trebuchet MS"; src: local("Source Han Sans SC"); }
@font-face { font-family: Verdana; src: local("Source Han Sans SC"); }
@font-face { font-family: Consolas; src: local("Source Code Pro"); }
@font-face { font-family: Courier; src: local("Source Code Pro"); }
@font-face { font-family: "Courier New"; src: local("Source Code Pro"); }
@font-face { font-family: SimSun; src: local("Source Han Sans SC"); }
@font-face { font-family: SimSun-ExtB; src: local("Source Han Sans SC"); }
@font-face { font-family: 宋体; src: local("Source Han Sans SC"); }
@font-face { font-family: NSimSun; src: local("Source Han Sans SC"); }
@font-face { font-family: 新宋体; src: local("Source Han Sans SC"); }
@font-face { font-family: SimHei; src: local("Source Han Sans SC"); }
@font-face { font-family: 黑体; src: local("Source Han Sans SC"); }
@font-face { font-family: "Microsoft YaHei"; src: local("Source Han Sans SC"); }
@font-face { font-family: 微软雅黑; src: local("Source Han Sans SC"); }
@font-face { font-family: "STHeiti SC"; src: local("Source Han Sans SC"); }
@font-face { font-family: "PingFang SC"; src: local("Source Han Sans SC"); }
@font-face { font-family: 苹方-简; src: local("Source Han Sans SC"); }
@font-face { font-family: MingLiU; src: local("Source Han Sans TC"); }
@font-face { font-family: MingLiU-ExtB; src: local("Source Han Sans TC"); }
@font-face { font-family: PMingLiU; src: local("Source Han Sans TC"); }
@font-face { font-family: PMingLiU-ExtB; src: local("Source Han Sans TC"); }
@font-face { font-family: "Microsoft JhengHei"; src: local("Source Han Sans TC"); }
@font-face { font-family: 微軟正黑體; src: local("Source Han Sans TC"); }
@font-face { font-family: "STHeiti TC"; src: local("Source Han Sans TC"); }
@font-face { font-family: "PingFang TC"; src: local("Source Han Sans TC"); }
@font-face { font-family: 蘋方-繁; src: local("Source Han Sans TC"); }
@font-face { font-family: MingLiU_HKSCS; src: local("Source Han Sans HC"); }
@font-face { font-family: MingLiU_HKSCS-ExtB; src: local("Source Han Sans HC"); }
@font-face { font-family: "PingFang HK"; src: local("Source Han Sans HC"); }
@font-face { font-family: 蘋方-港; src: local("Source Han Sans HC"); }
@font-face { font-family: "MS Gothic"; src: local("Source Han Sans"); }
@font-face { font-family: "MS PGothic"; src: local("Source Han Sans"); }
@font-face { font-family: "MS UI Gothic"; src: local("Source Han Sans"); }
@font-face { font-family: "Yu Gothic"; src: local("Source Han Sans"); }
@font-face { font-family: "Yu Gothic UI"; src: local("Source Han Sans"); }
@font-face { font-family: "Malgun Gothic"; src: local("Source Han Sans K"); }
</style></defs><path d="M198.276077 38.376015h166.296065v396.552155h-166.296065z" fill="#BA4735" p-id="3199"></path><path d="M377.364147 51.16802h-191.880075V38.376015h191.880075z" fill="#A53D2E" p-id="3200"></path><path d="M377.364147 38.376015h-191.880075V25.58401h191.880075z" fill="#9B2E2D" p-id="3201"></path><path d="M377.364147 127.92005h-191.880075V115.128045h191.880075zM377.364147 89.544035h-191.880075V76.75203h191.880075z" fill="#A53D2E" p-id="3202"></path><path d="M223.860087 89.544035h-12.792005V51.16802h12.792005zM287.820112 89.544035h-12.792005V51.16802h12.792005zM351.780137 89.544035h-12.792005V51.16802h12.792005zM223.860087 153.50406h-12.792005V115.128045h12.792005z" fill="#A53D2E" p-id="3203"></path><path d="M223.860087 243.048095h-12.792005v-38.376015h12.792005z" fill="#A0392E" p-id="3204"></path><path d="M287.820112 153.50406h-12.792005V115.128045h12.792005z" fill="#A53D2E" p-id="3205"></path><path d="M351.780137 153.50406h-12.792005V115.128045h12.792005z" fill="#A0392E" p-id="3206"></path><path d="M249.444097 127.92005h-12.792005V89.544035h12.792005z" fill="#A53D2E" p-id="3207"></path><path d="M249.444097 204.67208h-12.792005v-38.376015h12.792005zM249.444097 281.42411h-12.792005v-38.376015h12.792005z" fill="#A0392E" p-id="3208"></path><path d="M313.404122 127.92005h-12.792005V89.544035h12.792005z" fill="#A53D2E" p-id="3209"></path><path d="M313.404122 204.67208h-12.792005v-38.376015h12.792005zM377.364147 166.296065h-191.880075v-12.792005h191.880075z" fill="#A0392E" p-id="3210"></path><path d="M377.364147 204.67208h-191.880075v-12.792005h191.880075zM377.364147 243.048095h-191.880075v-12.792005h191.880075z" fill="#A0392E" p-id="3211"></path><path d="M377.364147 281.42411h-191.880075v-12.792005h191.880075z" fill="#9A2F2B" p-id="3212"></path><path d="M185.484072 38.376015h12.792005v396.552155h-12.792005z" fill="#C47A7A" opacity=".89" p-id="3213"></path><path d="M364.572142 38.376015h12.792005v396.552155h-12.792005z" fill="#2F0D0F" p-id="3214"></path><path d="M134.316052 447.720175h25.58401v25.58401h-25.58401z" fill="#4F080D" p-id="3215"></path><path d="M876.252342 447.720175h25.58401v25.58401h-25.58401z" fill="#43100F" p-id="3216"></path><path d="M236.652092 914.628357c0 46.051218-37.096814 83.148032-83.148032 83.148033-25.58401 0-66.518426 3.837601-83.148033-12.792005-25.58401-25.58401-20.467208-60.122423-12.792005-76.75203 25.58401-51.16802 49.888819-76.75203 95.940038-76.75203s83.148032 37.096814 83.148032 83.148032z" fill="#233A1A" p-id="3217"></path><path d="M236.652092 933.816365c0 46.051218-76.75203 12.792005-89.544035 38.376015s-60.122423 16.629606-76.75203 0c-25.58401-25.58401-19.188007-47.330418-12.792005-63.960025 25.58401-63.960025 38.376015-76.75203 95.940038-76.75203 46.051218 0 83.148032 56.284822 83.148032 102.33604z" fill="#345229" p-id="3218"></path><path d="M185.484072 921.02436c-25.58401 38.376015-38.376015 0-63.960025 12.792005-23.025609 11.512804-25.58401 38.376015-51.16802 38.376015-40.934416 0-19.188007-47.330418-12.792005-63.960025 25.58401-63.960025 38.376015-76.75203 95.940038-76.75203 46.051218 0 57.564022 51.16802 31.980012 89.544035z" fill="#688E46" p-id="3219"></path><path d="M147.108057 831.480325h25.58401v166.296065h-25.58401z" fill="#3E6230" p-id="3220"></path><path d="M134.316052 831.480325h12.792005v166.296065h-12.792005z" fill="#3E6230" opacity=".76" p-id="3221"></path><path d="M799.500312 914.628357c0 46.051218 37.096814 83.148032 83.148033 83.148033 25.58401 0 66.518426 3.837601 83.148032-12.792005 25.58401-25.58401 20.467208-60.122423 12.792005-76.75203-25.58401-51.16802-49.888819-76.75203-95.940037-76.75203s-83.148032 37.096814-83.148033 83.148032z" fill="#233A1A" p-id="3222"></path><path d="M799.500312 933.816365c0 46.051218 76.75203 12.792005 89.544035 38.376015s60.122423 16.629606 76.75203 0c25.58401-25.58401 19.188007-47.330418 12.792005-63.960025-25.58401-63.960025-38.376015-76.75203-95.940037-76.75203-46.051218 0-83.148032 56.284822-83.148033 102.33604z" fill="#345229" p-id="3223"></path><path d="M850.668332 921.02436c25.58401 38.376015 38.376015 0 63.960025 12.792005 23.025609 11.512804 25.58401 38.376015 51.16802 38.376015 40.934416 0 19.188007-47.330418 12.792005-63.960025-25.58401-63.960025-38.376015-76.75203-95.940037-76.75203-46.051218 0-57.564022 51.16802-31.980013 89.544035z" fill="#688E46" p-id="3224"></path><path d="M889.044347 997.77639h-25.58401V831.480325h25.58401z" fill="#3E6230" p-id="3225"></path><path d="M901.836352 997.77639h-12.792005V831.480325h12.792005z" fill="#3E6230" opacity=".76" p-id="3226"></path><path d="M876.252342 1023.3604h-716.35228V447.720175l358.17614-307.00812 358.17614 307.00812z" fill="#F5DFB6" p-id="3227"></path><path d="M422.136165 217.464085h191.880075v12.792005H422.136165zM307.00812 283.982511h422.136165v12.792005H307.00812zM217.464085 351.780137h601.224235v12.792005H217.464085zM166.296065 419.577764h703.560275v12.792005H166.296065zM159.900062 486.09619h716.35228v12.792005h-716.35228zM159.900062 552.614616h716.35228v12.792005h-716.35228zM159.900062 620.412242h716.35228v12.792005h-716.35228zM159.900062 688.209869h716.35228v12.792005h-716.35228zM159.900062 754.728295h716.35228v12.792005h-716.35228zM159.900062 821.246721h716.35228v12.792005h-716.35228zM159.900062 889.044347h716.35228v12.792005h-716.35228zM159.900062 956.841974h716.35228v12.792005h-716.35228z" fill="#F4E4C6" p-id="3228"></path><path d="M422.136165 204.67208h191.880075v12.792005H422.136165zM307.00812 271.190506h422.136165v12.792005H307.00812zM217.464085 338.988132h601.224235v12.792005H217.464085zM166.296065 406.785759h703.560275v12.792005H166.296065zM159.900062 473.304185h716.35228v12.792005h-716.35228zM159.900062 539.822611h716.35228v12.792005h-716.35228zM159.900062 607.620237h716.35228v12.792005h-716.35228zM159.900062 675.417864h716.35228v12.792005h-716.35228zM159.900062 741.93629h716.35228v12.792005h-716.35228zM159.900062 808.454716h716.35228v12.792005h-716.35228zM159.900062 876.252342h716.35228v12.792005h-716.35228zM159.900062 944.049969h716.35228v12.792005h-716.35228zM159.900062 1010.568395h716.35228v12.792005h-716.35228z" fill="#E8CFB5" p-id="3229"></path><path d="M160.539663 422.775765v601.224235h-12.792005v-601.224235z" fill="#F9EEDE" opacity=".6" p-id="3230"></path><path d="M876.252342 422.136165v601.224235h-12.792005V422.136165z" fill="#C0AF99" p-id="3231"></path><path d="M159.900062 501.446596V447.720175l358.17614-294.216115 38.376015 12.792005z" fill="#91644D" opacity=".58" p-id="3232"></path><path d="M83.148032 434.92817l38.376015 38.376015 396.552155-319.800125 396.552155 319.800125 38.376015-38.376015-434.92817-370.968145z" fill="#D64D3F" p-id="3233"></path><path d="M121.524047 473.304185h12.792005l383.76015-319.800125 383.76015 319.800125h12.792005l-396.552155-332.59213z" fill="#782A20" p-id="3234"></path><path d="M83.148032 422.136165v12.792005l434.92817-358.17614 434.92817 358.17614v-12.792005l-434.92817-358.17614z" fill="#ED6764" p-id="3235"></path><path d="M83.148032 409.34416l-25.58401-25.58401 89.544035-51.16802v-38.376015l115.128045-51.16802v-38.376015l89.544035-38.376015v-25.58401l76.75203-38.376015V76.75203l89.544035-51.16802v38.376015z" fill="#262828" p-id="3236"></path><path d="M57.564022 383.76015v-12.792005l89.544035-38.376015v-38.376015l115.128045-51.16802v-38.376015l89.544035-38.376015v-25.58401l76.75203-38.376015V76.75203l89.544035-51.16802-89.544035 63.960025v12.792005l-76.75203 51.16802v12.792005l-89.544035 51.16802v25.58401l-115.128045 63.960025v25.58401z" fill="#4F4F4F" p-id="3237"></path><path d="M223.860087 511.6802h258.398501v473.304185H223.860087z" fill="#A58466" p-id="3238"></path><path d="M249.444097 537.26421h204.67208v447.720175h-204.67208z" fill="#6A3422" p-id="3239"></path><path d="M479.700187 511.6802h12.792005v473.304185h-12.792005z" fill="#7A6855" p-id="3240"></path><path d="M492.492192 524.472205h12.792005v460.51218h-12.792005z" fill="#9E8978" p-id="3241"></path><path d="M610.178638 552.614616h227.697689V780.312305H610.178638z" fill="#BFA78E" p-id="3242"></path><path d="M594.828232 537.26421h230.25609v230.25609h-230.25609z" fill="#9E8978" p-id="3243"></path><path d="M582.036227 524.472205h230.25609v230.25609h-230.25609z" fill="#7A6855" p-id="3244"></path><path d="M569.244222 511.6802h230.25609v230.25609h-230.25609z" fill="#A58466" p-id="3245"></path><path d="M594.828232 537.26421h166.296065v166.296065h-166.296065z" fill="#7FB7D3" p-id="3246"></path><path d="M505.284197 537.26421h12.792005v447.720175h-12.792005z" fill="#BFA78E" p-id="3247"></path><path d="M287.820112 575.640225h127.92005v127.92005h-127.92005z" fill="#6DA9CE" p-id="3248"></path><path d="M198.276077 946.60837h332.59213v38.376015h-332.59213z" fill="#A89C89" p-id="3249"></path><path d="M198.276077 959.400375h332.59213v25.58401h-332.59213z" fill="#79736A" p-id="3250"></path><path d="M185.484072 972.19238h358.17614v12.792005h-358.17614z" fill="#867B6B" p-id="3251"></path><path d="M172.692067 984.984385h383.76015v38.376015h-383.76015z" fill="#A89C89" p-id="3252"></path><path d="M185.484072 997.77639h370.968145v25.58401h-370.968145z" fill="#79736A" p-id="3253"></path><path d="M249.444097 537.26421h204.67208v12.792005h-204.67208z" fill="#471F16" p-id="3254"></path><path d="M249.444097 933.816365h204.67208v12.792005h-204.67208z" fill="#5C3425" p-id="3255"></path><path d="M287.820112 575.640225h127.92005v12.792005h-127.92005z" fill="#658FA6" p-id="3256"></path><path d="M300.612117 575.640225v127.92005h-12.792005V575.640225z" fill="#658FA6" p-id="3257"></path><path d="M594.828232 537.26421h179.08807v12.792005h-179.08807z" fill="#3F6581" p-id="3258"></path><path d="M594.828232 703.560275h179.08807v12.792005h-179.08807z" fill="#BBBCB4" p-id="3259"></path><path d="M223.860087 498.888195h268.632105v12.792005h-268.632105z" fill="#D3B895" p-id="3260"></path><path d="M518.076202 63.960025l-434.92817 358.17614v-12.792005l434.92817-358.17614z" fill="#091615" p-id="3261"></path><path d="M569.244222 498.888195h230.25609v12.792005h-230.25609zM556.452217 498.888195h12.792005v230.25609h-12.792005z" fill="#D3B895" p-id="3262"></path><path d="M569.244222 486.09619h230.25609v12.792005h-230.25609z" fill="#FBECC2" p-id="3263"></path><path d="M773.916302 550.056215v153.50406h-12.792005V550.056215z" fill="#9FC3D3" p-id="3264"></path><path d="M607.620237 537.26421v166.296065h-12.792005V537.26421z" fill="#3F6581" p-id="3265"></path><path d="M262.236102 550.056215v396.552155h-12.792005V550.056215z" fill="#54291C" p-id="3266"></path><path d="M159.900062 511.6802v230.25609h-38.376015V511.6802z" fill="#CEBAAA" p-id="3267"></path><path d="M147.108057 511.6802v230.25609h-12.792005V511.6802z" fill="#AE8E70" p-id="3268"></path><path d="M914.628357 511.6802v230.25609h-38.376015V511.6802z" fill="#554A3D" p-id="3269"></path><path d="M901.836352 511.6802v230.25609h-12.792005V511.6802z" fill="#7A6855" p-id="3270"></path><path d="M543.660212 997.77639h12.792005v25.58401h-12.792005zM530.868207 959.400375h12.792005v25.58401h-12.792005z" fill="#645E57" p-id="3271"></path><path d="M415.740162 780.312305m-25.58401 0a25.58401 25.58401 0 1 0 51.16802 0 25.58401 25.58401 0 1 0-51.16802 0Z" fill="#522A1C" p-id="3272"></path><path d="M409.34416 773.916302m-19.188008 0a19.188007 19.188007 0 1 0 38.376015 0 19.188007 19.188007 0 1 0-38.376015 0Z" fill="#EFE592" p-id="3273"></path><path d="M409.34416 773.916302m-19.188008 0a19.188007 19.188007 0 1 0 38.376015 0 19.188007 19.188007 0 1 0-38.376015 0Z" fill="#D7BA38" p-id="3274"></path><path d="M390.156152 773.916302c0-10.233604 8.954403-19.188007 19.188008-19.188007 6.396002 0-1.2792 7.675203-6.396003 12.792005-5.116802 6.396002-12.792005 12.792005-12.792005 6.396002z" fill="#EFE592" p-id="3275"></path><path d="M953.004372 409.34416l25.58401-25.58401-89.544035-51.16802v-38.376015l-115.128045-51.16802v-38.376015l-89.544035-38.376015v-25.58401l-76.75203-38.376015V76.75203l-89.544035-51.16802v38.376015z" fill="#262828" p-id="3276"></path><path d="M978.588382 383.76015v-12.792005l-89.544035-38.376015v-38.376015l-115.128045-51.16802v-38.376015l-89.544035-38.376015v-25.58401l-76.75203-38.376015V76.75203l-89.544035-51.16802 89.544035 63.960025v12.792005l76.75203 51.16802v12.792005l89.544035 51.16802v25.58401l115.128045 63.960025v25.58401z" fill="#4F4F4F" p-id="3277"></path><path d="M518.076202 63.960025l434.92817 358.17614v-12.792005l-434.92817-358.17614z" fill="#091615" p-id="3278"></path></svg>